<svg xmlns="http://www.w3.org/2000/svg" viewBox="0 0 32 32"><defs><linearGradient id="a" x1="6" y1="3" x2="26" y2="29" gradientUnits="userSpaceOnUse"><stop offset="0" stop-color="#41d1ff"/><stop offset="1" stop-color="#bd34fe"/></linearGradient></defs><path fill="url(#a)" d="M29.88 6.66 16.97 29.77a.67.67 0 0 1-1.17 0L2.12 6.66a.67.67 0 0 1 .69-1l13.1 2.34a.67.67 0 0 0 .24 0l12.94-2.33a.67.67 0 0 1 .69 1Z"/><path fill="#fff" d="M22.27 3.2 12.7 5.07a.33.33 0 0 0-.27.31l-.59 9.97a.33.33 0 0 0 .4.35l2.67-.62a.33.33 0 0 1 .4.39l-.79 3.88a.33.33 0 0 0 .42.38l1.65-.5a.33.33 0 0 1 .42.38l-1.26 6.1c-.06.3.33.46.5.2l.11-.17 7.83-15.62a.33.33 0 0 0-.36-.47l-2.75.53a.33.33 0 0 1-.39-.41l1.8-6.22a.33.33 0 0 0-.4-.41Z"/></svg>
